<svg width="128" height="128" viewBox="0 0 128 128" fill="none" xmlns="http://www.w3.org/2000/svg">
<path d="M0 98.7901V28.2099H21.6352C34.0461 28.2099 43.1698 31.3692 49.0063 37.6878C54.9099 44.0064 57.8616 52.6777 57.8616 63.7017C57.8616 74.5239 54.9099 83.0944 49.0063 89.413C43.1698 95.6644 34.0461 98.7901 21.6352 98.7901H0ZM8.45283 91.732H21.434C28.2767 91.732 33.7107 90.6229 37.7359 88.4047C41.8281 86.1192 44.7463 82.8927 46.4906 78.7251C48.2348 74.4903 49.1069 69.4825 49.1069 63.7017C49.1069 57.7864 48.2348 52.7113 46.4906 48.4765C44.7463 44.2417 41.8281 40.9816 37.7359 38.6961C33.7107 36.4107 28.2767 35.268 21.434 35.268H8.45283V91.732Z" fill="#212529"/>
<path d="M97.1069 100C89.9958 100 83.891 98.4876 78.7925 95.4627C73.6939 92.3706 69.7694 88.1022 67.0189 82.6575C64.2683 77.1455 62.8931 70.7933 62.8931 63.6008C62.8931 56.4084 64.2683 50.0562 67.0189 44.5442C69.7694 39.0322 73.6939 34.7302 78.7925 31.6381C83.891 28.546 89.9958 27 97.1069 27C105.56 27 112.47 29.1174 117.836 33.3522C123.27 37.5198 126.658 43.4015 128 50.9972H113.811C112.939 47.1657 111.061 44.1745 108.176 42.0235C105.358 39.8052 101.602 38.6961 96.9057 38.6961C90.3983 38.6961 85.2998 40.9144 81.6101 45.3508C77.9203 49.7873 76.0755 55.8706 76.0755 63.6008C76.0755 71.331 77.9203 77.4144 81.6101 81.8508C85.2998 86.2201 90.3983 88.4047 96.9057 88.4047C101.602 88.4047 105.358 87.3964 108.176 85.3798C111.061 83.296 112.939 80.4392 113.811 76.8094H128C126.658 84.0691 123.27 89.7491 117.836 93.8495C112.47 97.9498 105.56 100 97.1069 100Z" fill="#00856F"/>
</svg>
